<?xml version="1.0" standalone="no"?>
<!DOCTYPE svg PUBLIC "-//W3C//DTD SVG 20010904//EN"
 "http://www.w3.org/TR/2001/REC-SVG-20010904/DTD/svg10.dtd">
<svg version="1.0" xmlns="http://www.w3.org/2000/svg"
 width="70.000000pt" height="70.000000pt" viewBox="0 0 70.000000 70.000000"
 preserveAspectRatio="xMidYMid meet">
<metadata>
Created by potrace 1.11, written by Peter Selinger 2001-2013
</metadata>
<g transform="translate(0.000000,70.000000) scale(0.100000,-0.100000)"
fill="#000000" stroke="none">
<path d="M210 635 c0 -3 7 -16 16 -29 14 -22 14 -26 -4 -43 -11 -10 -22 -28
-26 -39 -8 -25 9 -74 25 -74 7 0 8 7 4 18 -17 40 -15 51 9 77 26 28 27 53 4
83 -11 12 -28 17 -28 7z"/>
<path d="M320 635 c0 -2 5 -16 12 -30 10 -22 8 -28 -10 -48 -26 -27 -29 -79
-7 -97 14 -12 15 -8 9 26 -5 32 -2 43 15 58 24 22 27 53 7 79 -12 16 -26 23
-26 12z"/>
<path d="M430 635 c0 -3 7 -16 16 -29 14 -22 14 -26 -4 -43 -11 -10 -22 -28
-26 -39 -8 -25 9 -74 25 -74 6 0 9 6 6 13 -17 46 -16 55 8 81 26 28 27 53 3
84 -11 12 -28 17 -28 7z"/>
<path d="M87 424 c-14 -14 -7 -94 13 -147 20 -53 63 -108 110 -139 l25 -17
-48 0 c-34 -1 -47 -5 -44 -13 5 -16 366 -19 370 -3 1 6 -18 12 -42 15 l-45 5
42 28 c23 15 51 27 63 27 11 0 37 16 56 35 31 31 35 40 30 72 -4 19 -13 43
-21 52 -8 9 -16 32 -18 51 l-3 35 -241 3 c-132 1 -243 -1 -247 -4z m303 -87
c36 -18 38 -59 4 -86 -22 -18 -38 -21 -95 -19 -38 2 -64 7 -59 12 4 4 6 23 3
41 -4 26 -1 36 18 49 28 19 94 21 129 3z m175 -86 c-3 -12 -10 -21 -15 -21 -4
0 -3 11 3 24 14 29 22 27 12 -3z"/>
<path d="M280 285 c0 -8 7 -15 15 -15 8 0 15 7 15 15 0 8 -7 15 -15 15 -8 0
-15 -7 -15 -15z"/>
<path d="M320 285 c0 -10 10 -15 30 -15 20 0 30 5 30 15 0 10 -10 15 -30 15
-20 0 -30 -5 -30 -15z"/>
</g>
</svg>
